<svg viewBox="0 0 900 320" xmlns="http://www.w3.org/2000/svg">
  <defs>
    <linearGradient id="tsGrad" x1="0%" y1="0%" x2="100%" y2="0%">
      <stop offset="0%" stop-color="#22d3ee"/>
      <stop offset="100%" stop-color="#8b5cf6"/>
    </linearGradient>
    <linearGradient id="tsBg" x1="0%" y1="0%" x2="100%" y2="100%">
      <stop offset="0%" stop-color="#0d1117"/>
      <stop offset="100%" stop-color="#131a2b"/>
    </linearGradient>
  </defs>
  <rect x="0" y="0" width="900" height="320" rx="18" fill="url(#tsBg)"/>
  <rect x="1.5" y="1.5" width="897" height="317" rx="18" fill="none" stroke="url(#tsGrad)" stroke-opacity="0.3" stroke-width="1.5"/>

  <text x="40" y="45" font-family="'JetBrains Mono', monospace" font-size="20" font-weight="700" fill="url(#tsGrad)">⚡ Tech Stack</text>
  <line x1="40" y1="58" x2="860" y2="58" stroke="#22d3ee" stroke-opacity="0.2"/>

  <!-- Row generator via manual placement -->
  <!-- Languages -->
  <text x="40" y="90" font-family="'JetBrains Mono', monospace" font-size="13" fill="#8b9dc3">LANGUAGES</text>
  <g font-family="'JetBrains Mono', monospace" font-size="13" fill="#e6edf3">
    <g transform="translate(40,102)">
      <rect width="100" height="30" rx="15" fill="#161b22" stroke="#22d3ee" stroke-opacity="0.4"/>
      <text x="50" y="20" text-anchor="middle">JavaScript</text>
    </g>
    <g transform="translate(150,102)">
      <rect width="100" height="30" rx="15" fill="#161b22" stroke="#8b5cf6" stroke-opacity="0.4"/>
      <text x="50" y="20" text-anchor="middle">TypeScript</text>
    </g>
    <g transform="translate(260,102)">
      <rect width="80" height="30" rx="15" fill="#161b22" stroke="#22d3ee" stroke-opacity="0.4"/>
      <text x="40" y="20" text-anchor="middle">Python</text>
    </g>
    <g transform="translate(350,102)">
      <rect width="70" height="30" rx="15" fill="#161b22" stroke="#8b5cf6" stroke-opacity="0.4"/>
      <text x="35" y="20" text-anchor="middle">Java</text>
    </g>
  </g>

  <!-- Frameworks -->
  <text x="40" y="160" font-family="'JetBrains Mono', monospace" font-size="13" fill="#8b9dc3">FRAMEWORKS &amp; RUNTIME</text>
  <g font-family="'JetBrains Mono', monospace" font-size="13" fill="#e6edf3">
    <g transform="translate(40,172)"><rect width="70" height="30" rx="15" fill="#161b22" stroke="#22d3ee" stroke-opacity="0.4"/><text x="35" y="20" text-anchor="middle">React</text></g>
    <g transform="translate(130,172)"><rect width="90" height="30" rx="15" fill="#161b22" stroke="#8b5cf6" stroke-opacity="0.4"/><text x="45" y="20" text-anchor="middle">Next.js</text></g>
    <g transform="translate(240,172)"><rect width="90" height="30" rx="15" fill="#161b22" stroke="#22d3ee" stroke-opacity="0.4"/><text x="45" y="20" text-anchor="middle">FastAPI</text></g>
    <g transform="translate(350,172)"><rect width="120" height="30" rx="15" fill="#161b22" stroke="#8b5cf6" stroke-opacity="0.4"/><text x="60" y="20" text-anchor="middle">Spring Boot</text></g>
    <g transform="translate(490,172)"><rect width="90" height="30" rx="15" fill="#161b22" stroke="#22d3ee" stroke-opacity="0.4"/><text x="45" y="20" text-anchor="middle">Node.js</text></g>
  </g>

  <!-- Data -->
  <text x="40" y="230" font-family="'JetBrains Mono', monospace" font-size="13" fill="#8b9dc3">DATA &amp; INFRA</text>
  <g font-family="'JetBrains Mono', monospace" font-size="13" fill="#e6edf3">
    <g transform="translate(40,242)"><rect width="110" height="30" rx="15" fill="#161b22" stroke="#22d3ee" stroke-opacity="0.4"/><text x="55" y="20" text-anchor="middle">PostgreSQL</text></g>
    <g transform="translate(160,242)"><rect width="100" height="30" rx="15" fill="#161b22" stroke="#8b5cf6" stroke-opacity="0.4"/><text x="50" y="20" text-anchor="middle">MongoDB</text></g>
    <g transform="translate(270,242)"><rect width="80" height="30" rx="15" fill="#161b22" stroke="#22d3ee" stroke-opacity="0.4"/><text x="40" y="20" text-anchor="middle">Docker</text></g>
  </g>

  <!-- AI -->
  <text x="600" y="90" font-family="'JetBrains Mono', monospace" font-size="13" fill="#8b9dc3">AI &amp; AGENT ENGINEERING</text>
  <g font-family="'JetBrains Mono', monospace" font-size="13" fill="#0d1117" font-weight="600">
    <g transform="translate(600,102)"><rect width="105" height="30" rx="15" fill="#22d3ee"/><text x="52" y="20" text-anchor="middle">LangGraph</text></g>
    <g transform="translate(600,142)"><rect width="90" height="30" rx="15" fill="#8b5cf6"/><text x="45" y="20" text-anchor="middle" fill="#0d1117">Gemini</text></g>
    <g transform="translate(700,142)"><rect width="90" height="30" rx="15" fill="#22d3ee"/><text x="45" y="20" text-anchor="middle">Qdrant</text></g>
    <g transform="translate(600,182)"><rect width="80" height="30" rx="15" fill="#8b5cf6"/><text x="40" y="20" text-anchor="middle" fill="#0d1117">Groq</text></g>
  </g>

  <!-- Tools -->
  <text x="600" y="240" font-family="'JetBrains Mono', monospace" font-size="13" fill="#8b9dc3">TOOLS &amp; WORKFLOW</text>
  <g font-family="'JetBrains Mono', monospace" font-size="13" fill="#e6edf3">
    <g transform="translate(600,252)"><rect width="60" height="30" rx="15" fill="#161b22" stroke="#22d3ee" stroke-opacity="0.4"/><text x="30" y="20" text-anchor="middle">Git</text></g>
    <g transform="translate(670,252)"><rect width="100" height="30" rx="15" fill="#161b22" stroke="#8b5cf6" stroke-opacity="0.4"/><text x="50" y="20" text-anchor="middle">VS Code</text></g>
    <g transform="translate(780,252)"><rect width="90" height="30" rx="15" fill="#161b22" stroke="#22d3ee" stroke-opacity="0.4"/><text x="45" y="20" text-anchor="middle">Postman</text></g>
  </g>
</svg>
